<svg width="72" height="72" viewBox="0 0 72 72" fill="none" xmlns="http://www.w3.org/2000/svg">
<g clip-path="url(#clip0_2532:4185)">
<path d="M43.3631 15.2179C43.3631 15.2179 34.8711 13.8936 34.8711 9.55489C34.8711 5.21623 40.998 10.8793 43.3631 15.2179Z" fill="#68D787"/>
<path d="M37.134 30.57C37.629 31.1232 38.2935 31.5027 39.0269 31.6513C39.7604 31.7999 40.5231 31.7095 41.1997 31.3938C41.9729 31.0612 42.8375 30.9949 43.6537 31.2057C46.1131 31.7805 45.4108 33.6241 47.5176 32.9327C49.6245 32.2414 58.1165 22.3377 52.3825 17.3951C46.6485 12.4526 44.356 19.4559 42.9649 19.2254C41.5738 18.995 31.6018 10.9428 33.6306 22.7668C33.6306 22.8436 33.6602 22.9178 33.6764 22.992C33.8486 23.7548 34.9572 28.0511 37.134 30.57Z" fill="#FF693D"/>
<path d="M52.2614 21.0108C52.185 21.0106 52.1096 20.9927 52.0414 20.9587C51.9732 20.9246 51.914 20.8754 51.8686 20.8148C51.0964 19.795 50.308 19.2573 49.5196 19.2255C49.2143 19.2265 48.9122 19.2872 48.6309 19.4041C48.3496 19.5209 48.0947 19.6916 47.8809 19.9062C47.793 20.0006 47.6709 20.0571 47.541 20.0635C47.4111 20.07 47.2838 20.0258 47.1867 19.9407C47.09 19.8553 47.0317 19.7356 47.0247 19.608C47.0176 19.4803 47.0623 19.3551 47.149 19.2599C47.4587 18.9395 47.8322 18.6853 48.246 18.513C48.6598 18.3408 49.1053 18.2542 49.5546 18.2587C50.6551 18.3064 51.7072 18.9765 52.657 20.2453C52.6955 20.2964 52.7234 20.3545 52.7391 20.4163C52.7548 20.478 52.758 20.5422 52.7486 20.6052C52.7391 20.6681 52.717 20.7286 52.6838 20.7832C52.6505 20.8378 52.6067 20.8854 52.5548 20.9234C52.4689 20.9825 52.3662 21.0131 52.2614 21.0108Z" fill="white"/>
<path d="M46.1642 21.0637C46.4034 21.0637 46.5974 20.8728 46.5974 20.6373C46.5974 20.4017 46.4034 20.2108 46.1642 20.2108C45.9249 20.2108 45.731 20.4017 45.731 20.6373C45.731 20.8728 45.9249 21.0637 46.1642 21.0637Z" fill="white"/>
<path d="M36.8515 51.8422C53.292 51.1032 41.1729 31.3249 54.3414 31.5448C89.3212 32.1328 60.3445 62.9484 47.4315 63.9232C31.6368 65.1125 29.9094 52.1521 36.8515 51.8422Z" fill="#FFF0CB"/>
<path d="M57.1213 57.1052C57.0613 56.4845 57.1536 55.8586 57.3904 55.2803C57.7678 54.3482 58.4369 53.5587 59.3008 53.0262C59.2296 52.7936 59.1801 52.5551 59.1528 52.3136C59.0252 51.4112 59.2063 50.4926 59.6677 49.7027C60.1291 48.9128 60.8444 48.2966 61.701 47.9511C62.4018 47.6637 63.1602 47.5377 63.9181 47.583L63.8509 48.6822C63.2621 48.6455 62.6727 48.7434 62.1288 48.9683C61.4982 49.2252 60.9726 49.6815 60.6349 50.2653C60.2973 50.849 60.1668 51.5269 60.2641 52.1918C60.2746 52.2915 60.2907 52.3906 60.3125 52.4885L60.5574 52.3878C62.753 51.5243 64.0554 52.2766 64.5316 53.2672C64.9971 54.2181 64.7227 55.3862 63.9343 55.8312C63.3531 56.1543 62.4355 56.0749 61.5368 55.6246C60.8126 55.2616 60.2017 54.7125 59.769 54.0353C58.0334 55.2511 58.2245 56.8589 58.2353 56.949L57.1213 57.1052ZM60.7403 53.5029C61.0701 53.9842 61.5168 54.3767 62.04 54.6446C62.71 54.9809 63.2159 54.9624 63.3854 54.8723C63.6329 54.7373 63.7513 54.2022 63.528 53.744C63.1808 53.0288 62.2499 52.907 60.9771 53.4102L60.7403 53.5029Z" fill="#FF693D"/>
<path d="M7.76207 26.6737C7.61934 26.6737 7.48247 26.6179 7.38154 26.5186C7.28062 26.4192 7.22391 26.2845 7.22391 26.144L7.19971 19.2943C7.19971 19.1538 7.25641 19.019 7.35734 18.9197C7.45826 18.8203 7.59513 18.7645 7.73786 18.7645C7.88058 18.7645 8.01746 18.8203 8.11838 18.9197C8.2193 19.019 8.27601 19.1538 8.27601 19.2943L8.30022 26.144C8.30022 26.2845 8.24354 26.4192 8.14262 26.5186C8.0417 26.6179 7.90479 26.6737 7.76207 26.6737Z" fill="#00202B"/>
<path d="M3.93024 23.2966C3.78751 23.2966 3.65064 23.2408 3.54972 23.1414C3.4488 23.0421 3.39209 22.9073 3.39209 22.7668C3.39209 22.6263 3.4488 22.4916 3.54972 22.3922C3.65064 22.2929 3.78751 22.2371 3.93024 22.2371L10.9747 22.2026C11.1174 22.2026 11.2543 22.2585 11.3552 22.3578C11.4561 22.4572 11.5128 22.5919 11.5128 22.7324C11.5128 22.8729 11.4561 23.0076 11.3552 23.107C11.2543 23.2063 11.1174 23.2621 10.9747 23.2621L3.93024 23.2966Z" fill="#00202B"/>
<path d="M3.01537 31.6905C2.48108 31.6898 1.96887 31.4806 1.59107 31.1087C1.21326 30.7368 1.00071 30.2326 1 29.7066C1.00071 29.1809 1.21335 28.677 1.59123 28.3055C1.96911 27.934 2.48133 27.7253 3.01537 27.7253C3.54895 27.726 4.06044 27.935 4.43774 28.3064C4.81504 28.6778 5.02734 29.1814 5.02805 29.7066C5.02734 30.2321 4.81513 30.7359 4.43791 31.1077C4.06069 31.4796 3.5492 31.6891 3.01537 31.6905ZM3.01537 28.7769C2.76179 28.7769 2.51854 28.8759 2.33897 29.0521C2.15941 29.2284 2.05816 29.4676 2.05745 29.7172C2.05816 29.9671 2.15932 30.2065 2.33881 30.3832C2.5183 30.5599 2.76154 30.6595 3.01537 30.6602C3.26874 30.6588 3.51129 30.5589 3.6902 30.3823C3.86911 30.2057 3.96987 29.9666 3.97057 29.7172C3.97199 29.5927 3.94837 29.4692 3.90104 29.3537C3.8537 29.2382 3.7836 29.1332 3.6948 29.0445C3.60599 28.9559 3.50023 28.8854 3.38361 28.8372C3.267 28.789 3.14185 28.764 3.01537 28.7636V28.7769Z" fill="#68D787"/>
<path d="M33.4075 41.8935L53.12 41.7478C55.9399 41.7478 58.2324 39.2341 58.2324 36.1324C58.2324 33.0493 55.9722 30.5435 53.1684 30.517L33.1411 30.4084L33.4075 41.8935Z" fill="#FECB04"/>
<path d="M13.1167 30.8985L38.1192 31.0257C40.3014 31.0495 42.0612 33.4095 42.0612 36.3232C42.0612 39.25 40.2826 41.6207 38.0869 41.6207L13.1167 41.7478C13.1167 41.7478 17.691 36.1192 13.1167 30.8879" fill="#FFF0CB"/>
<path d="M9.25245 41.9624C9.11828 41.9624 8.98962 41.91 8.89475 41.8166C8.79988 41.7232 8.74658 41.5965 8.74658 41.4645C8.74658 41.1996 8.93763 41.2711 9.21746 41.2711L37.5807 40.948C40.1181 40.948 42.1819 38.7945 42.1819 36.1458C42.1819 33.497 40.1343 31.378 37.6076 31.3436L9.3547 31.1025C9.221 31.1011 9.09331 31.0477 8.99953 30.9539C8.90575 30.8601 8.8535 30.7335 8.85422 30.6019C8.85564 30.4708 8.90955 30.3455 9.00426 30.2532C9.09897 30.161 9.22685 30.1092 9.36008 30.1093L37.613 30.3476C40.6805 30.3741 43.1775 32.9752 43.1775 36.1458C43.1775 39.3163 40.6589 41.9439 37.5673 41.9439H9.23901L9.25245 41.9624Z" fill="#FECB04"/>
<path d="M39.6017 37.2847H18.5708V38.1217H39.6017V37.2847Z" fill="#FECB04"/>
<path d="M33.0928 52.8117L52.808 52.666C55.6279 52.666 57.9204 50.1523 57.9204 47.0533C57.9204 43.9701 55.6602 41.4618 52.8591 41.4379L32.8291 41.3293L33.0928 52.8117Z" fill="#FECB04"/>
<path d="M12.7988 41.8167L37.7986 41.9464C39.9835 41.9703 41.7433 44.3303 41.7433 47.244C41.7433 50.1708 39.962 52.5415 37.7663 52.5415L12.7988 52.6686C12.7988 52.6686 17.3731 47.0374 12.7988 41.8087" fill="#FFF0CB"/>
<path d="M8.92163 52.8806C8.78818 52.8806 8.6602 52.8284 8.56584 52.7355C8.47147 52.6426 8.41846 52.5166 8.41846 52.3853C8.41846 52.2537 8.47139 52.1274 8.56567 52.0341C8.65996 51.9408 8.78793 51.888 8.92163 51.8873H37.2499C39.7873 51.8873 41.8511 49.7339 41.8511 47.0851C41.8511 44.4364 39.8061 42.3014 37.2768 42.2803L9.02388 42.0419C8.95745 42.0412 8.89181 42.0276 8.83071 42.0019C8.7696 41.9763 8.71423 41.939 8.66776 41.8923C8.62128 41.8455 8.58459 41.7903 8.55983 41.7296C8.53506 41.6689 8.52269 41.604 8.5234 41.5386C8.5234 41.2737 8.71983 41.2419 8.99698 41.2419L11.7012 41.3929L37.2929 41.287C40.3604 41.3135 42.8547 43.9145 42.8547 47.0851C42.8547 50.2557 40.355 52.8673 37.2633 52.8673H8.9324L8.92163 52.8806Z" fill="#FECB04"/>
<path d="M38.2321 44.8124H17.2012V45.6494H38.2321V44.8124Z" fill="#FECB04"/>
<path d="M52.4148 42.1742L8.53659 42.0338C8.47205 42.0338 8.40817 42.0213 8.34857 41.9969C8.28898 41.9725 8.23488 41.9367 8.18937 41.8917C8.14386 41.8466 8.10783 41.7932 8.08337 41.7344C8.05892 41.6756 8.04653 41.6126 8.04688 41.5491C8.04688 41.4856 8.05965 41.4227 8.08443 41.364C8.1092 41.3053 8.14551 41.2521 8.19127 41.2073C8.23703 41.1625 8.29134 41.127 8.35107 41.103C8.4108 41.0789 8.47474 41.0667 8.53928 41.067L52.4201 41.2074C52.4847 41.2074 52.5486 41.22 52.6082 41.2443C52.6677 41.2687 52.7219 41.3045 52.7674 41.3495C52.8129 41.3946 52.8489 41.448 52.8734 41.5068C52.8978 41.5656 52.9102 41.6286 52.9098 41.6921C52.9095 41.7558 52.8964 41.8187 52.8714 41.8774C52.8463 41.9361 52.8097 41.9893 52.7637 42.0341C52.7177 42.0789 52.6633 42.1143 52.6034 42.1383C52.5435 42.1624 52.4794 42.1746 52.4148 42.1742Z" fill="#00202B"/>
<path d="M33.4396 34.0664H21.3716V34.9034H33.4396V34.0664Z" fill="#FECB04"/>
<path d="M32.5304 48.0173H20.4624V48.8543H32.5304V48.0173Z" fill="#FECB04"/>
<path d="M42.6611 17.6732H42.6208C42.4818 17.6604 42.3534 17.5949 42.2625 17.4907C42.1716 17.3864 42.1255 17.2515 42.1338 17.1143C42.2515 15.8924 42.5227 14.6895 42.941 13.5332C43.8693 11.0593 45.3627 9.75342 47.2812 9.75342C47.4239 9.75342 47.5608 9.80924 47.6617 9.90859C47.7626 10.0079 47.8193 10.1427 47.8193 10.2832C47.8193 10.4237 47.7626 10.5584 47.6617 10.6578C47.5608 10.7571 47.4239 10.8129 47.2812 10.8129C43.7267 10.8129 43.1912 17.1488 43.1858 17.2123C43.1691 17.3383 43.1068 17.4542 43.0105 17.5388C42.9142 17.6234 42.7902 17.6711 42.6611 17.6732Z" fill="#00202B"/>
</g>
<defs>
<clipPath id="clip0_2532:4185">
<rect width="70" height="56" fill="white" transform="translate(1 8)"/>
</clipPath>
</defs>
</svg>
