<svg width="72" height="72" viewBox="0 0 72 72" fill="none" xmlns="http://www.w3.org/2000/svg">
<g clip-path="url(#clip0_2532:4169)">
<path d="M50.632 48.6432C47.5418 52.2477 39.4105 46.0551 34.8683 47.1856C28.3281 48.8118 25.1684 56.4794 19.7401 52.3221C10.5391 45.2792 10.5937 29.1928 20.6436 23.4241C32.1703 16.8125 27.5636 25.5858 36.7622 32.6287C45.9607 39.6716 58.0509 39.9766 50.632 48.6432Z" fill="#E8DFFF"/>
<path d="M38.4972 45.9535C33.9326 45.9535 28.3207 44.714 22.0212 40.7476C21.9429 40.6983 21.8777 40.6308 21.831 40.551C21.7843 40.4712 21.7576 40.3813 21.7531 40.2889L21.2915 29.168C21.2884 29.0915 21.3009 29.0151 21.3282 28.9435C21.3555 28.872 21.3971 28.8067 21.4503 28.7515C21.5033 28.6961 21.5668 28.6518 21.6371 28.6212C21.7074 28.5905 21.7831 28.5742 21.8598 28.573L53.3003 28.3524C53.4479 28.3523 53.5898 28.4093 53.6963 28.5114C53.8027 28.6136 53.8654 28.753 53.8712 28.9003L54.2807 39.7435C54.284 39.8228 54.2707 39.9019 54.2416 39.9758C54.2126 40.0496 54.1684 40.1166 54.1119 40.1724C53.9779 40.3013 50.8108 43.3704 45.246 44.9941C43.0535 45.6331 40.781 45.9561 38.4972 45.9535ZM22.8825 39.9443C32.3144 45.7552 40.0311 45.3214 44.8736 43.9108C47.9082 43.051 50.7238 41.5532 53.1315 39.518L52.7542 29.4928L22.458 29.7084L22.8825 39.9443Z" fill="#00202B"/>
<path d="M12.0628 25.5586L35.6946 18.057C35.9486 17.9753 36.2207 17.9676 36.4789 18.0347L62.0219 24.5868C62.3083 24.6601 62.5648 24.8205 62.7558 25.0458C62.9468 25.2712 63.0629 25.5503 63.088 25.8445C63.1131 26.1387 63.046 26.4334 62.8959 26.6878C62.7458 26.9421 62.5202 27.1436 62.2503 27.2641L38.9511 37.6761C38.6123 37.8281 38.2273 37.8414 37.8788 37.7132L12.0106 28.2483C11.7323 28.1463 11.4928 27.9602 11.3254 27.7158C11.158 27.4714 11.0712 27.1809 11.0769 26.8849C11.0827 26.5889 11.1807 26.302 11.3574 26.0642C11.5341 25.8265 11.7807 25.6497 12.0628 25.5586Z" fill="#8853F1"/>
<path d="M37.2561 26.5378C39.0902 26.5378 40.5771 26.1393 40.5771 25.6478C40.5771 25.1563 39.0902 24.7578 37.2561 24.7578C35.4219 24.7578 33.9351 25.1563 33.9351 25.6478C33.9351 26.1393 35.4219 26.5378 37.2561 26.5378Z" fill="white"/>
<path d="M63.5114 38.3305L62.4192 38.3131C62.4763 34.5946 59.9992 30.8958 56.5293 29.5299C54.8965 28.9096 53.1215 28.7626 51.4088 29.106C51.3051 30.7877 50.6942 32.3986 49.6564 33.7269C48.8969 34.6813 48.058 35.2416 47.1744 35.3878C46.0748 35.5688 44.727 34.9515 44.4689 33.7467C44.2976 32.9534 44.6203 32.1031 45.422 31.2132C46.7489 29.7778 48.4552 28.7465 50.3439 28.2383C50.3107 27.2272 50.0566 26.2356 49.5993 25.3329C48.959 24.1248 47.9796 23.1295 46.7813 22.469C45.583 21.8085 44.2178 21.5115 42.8531 21.6144C40.6539 21.8201 38.3183 23.5976 38.4871 25.8287L37.3975 25.9105C37.2957 24.5694 37.8591 23.2555 38.986 22.2118C40.0254 21.257 41.3463 20.6639 42.7513 20.5211C44.333 20.401 45.9154 20.7447 47.3043 21.5101C48.6932 22.2754 49.8281 23.4292 50.5698 24.8297C51.0708 25.8142 51.36 26.8926 51.4187 27.9954C53.2702 27.6606 55.178 27.8371 56.9364 28.5061C60.8158 30.0406 63.5833 34.1706 63.5114 38.3305ZM50.2918 29.3886C48.7376 29.8667 47.3376 30.7467 46.2336 31.9395C45.6801 32.5543 45.4443 33.0823 45.5362 33.5137C45.6603 34.0839 46.4074 34.4037 46.9956 34.3045C47.5839 34.2053 48.2218 33.7789 48.81 33.0427C49.6361 31.9861 50.1517 30.721 50.2993 29.3886H50.2918Z" fill="#FFBD00"/>
<path d="M71.4091 42.5002L62.4736 46.9997L62.8137 39.9196C62.7554 39.6942 62.7783 39.4555 62.8784 39.2453C62.9786 39.0352 63.1496 38.8668 63.3614 38.7699C63.5733 38.673 63.8126 38.6536 64.0374 38.7151C64.2621 38.7766 64.4581 38.9151 64.5908 39.1064L71.4091 42.5002Z" fill="#FF693D"/>
<path d="M63.2456 39.7659C63.9379 39.7659 64.4991 39.2054 64.4991 38.514C64.4991 37.8226 63.9379 37.2621 63.2456 37.2621C62.5534 37.2621 61.9922 37.8226 61.9922 38.514C61.9922 39.2054 62.5534 39.7659 63.2456 39.7659Z" fill="#8853F1"/>
<path d="M67.9266 46.6238C70.5433 45.4721 72.3483 43.8215 71.958 42.937C71.5678 42.0524 69.1302 42.2689 66.5134 43.4206C63.8967 44.5722 62.0917 46.2228 62.482 47.1073C62.8722 47.9919 65.3099 47.7754 67.9266 46.6238Z" fill="#CC3D1B"/>
<path d="M4.83761 29.2449L1.13931 29.8547L0.605688 29.9439C0.396281 30.0019 0.218366 30.1403 0.11091 30.3289C0.00345339 30.5176 -0.0248059 30.741 0.0323147 30.9504C0.0952556 31.1564 0.234746 31.3305 0.422138 31.437C0.609531 31.5434 0.830628 31.5743 1.04005 31.5231L4.73832 30.9132L5.27197 30.8265C5.48156 30.768 5.65948 30.6291 5.7669 30.4401C5.87432 30.251 5.90253 30.0272 5.84534 29.8175C5.7824 29.6116 5.64291 29.4375 5.45552 29.331C5.26813 29.2245 5.04703 29.1937 4.83761 29.2449Z" fill="#FFBD00"/>
<path d="M8.37447 23.6522L6.51291 20.3898L6.24983 19.9312C6.13862 19.7452 5.95887 19.6101 5.74914 19.555C5.53941 19.4999 5.3164 19.529 5.12793 19.6361C4.94318 19.7485 4.8092 19.928 4.75413 20.137C4.69906 20.3459 4.72716 20.568 4.83254 20.7567L6.69658 24.0191L6.9597 24.4802C7.07131 24.6657 7.25123 24.8002 7.46093 24.8549C7.67063 24.9096 7.89342 24.8801 8.0816 24.7727C8.26592 24.6599 8.39937 24.4802 8.45397 24.2713C8.50857 24.0624 8.48007 23.8406 8.37447 23.6522Z" fill="#FFBD00"/>
<path d="M6.12343 26.0743L2.64853 24.629L2.15211 24.4232C1.75498 24.2596 1.23373 24.6017 1.14438 24.9959C1.09305 25.2054 1.12384 25.4265 1.23043 25.6141C1.33701 25.8017 1.51135 25.9414 1.71775 26.0048L5.19265 27.4476L5.68907 27.6534C6.0862 27.8195 6.60991 27.4749 6.69926 27.0832C6.74997 26.8737 6.71893 26.6529 6.61242 26.4654C6.50592 26.278 6.33197 26.1382 6.12592 26.0743H6.12343Z" fill="#FFBD00"/>
</g>
<defs>
<clipPath id="clip0_2532:4169">
<rect width="72" height="35.5443" fill="white" transform="translate(0 18)"/>
</clipPath>
</defs>
</svg>
