<svg width="72" height="72" viewBox="0 0 72 72" fill="none" xmlns="http://www.w3.org/2000/svg">
<g clip-path="url(#clip0_2532:4211)">
<path d="M27.1883 47.4636C45.7637 49.4819 32.196 25.8391 46.9389 28.3743C86.093 35.1086 51.5694 64.107 36.9234 62.967C18.9789 61.575 19.3494 46.6119 27.1883 47.4636Z" fill="#DAEFDE"/>
<path d="M53.6225 43.2446L52.661 42.2504C53.1903 41.7478 53.5959 41.1309 53.8462 40.4475C54.1375 39.659 54.1558 38.7966 53.8983 37.9965C53.6407 37.1965 53.122 36.5045 52.424 36.0298C52.3233 35.9545 52.2185 35.8848 52.1101 35.821C52.0734 35.9204 52.0367 36.0265 51.9966 36.1292C50.9517 38.8468 49.1656 39.3837 47.8402 38.9827C46.5682 38.5949 45.7102 37.3521 45.964 36.2651C46.1543 35.4664 47.0022 34.7008 48.1741 34.2766C49.1163 33.9277 50.1361 33.8383 51.1253 34.0181C51.4591 31.4133 49.7899 30.2235 49.7231 30.1638L50.5077 29.0271C51.1353 29.4971 51.6402 30.1096 51.9799 30.8134C52.5259 31.9471 52.6943 33.2239 52.4607 34.4589C52.7362 34.5902 52.9989 34.7467 53.2452 34.9262C54.1893 35.576 54.8887 36.5191 55.2332 37.607C55.5777 38.6948 55.5478 39.8655 55.1482 40.9347C54.8228 41.8096 54.3011 42.5996 53.6225 43.2446ZM50.1571 35.2908C49.645 35.2925 49.1369 35.381 48.6548 35.5526C47.7801 35.884 47.3695 36.348 47.3194 36.57C47.2393 36.9014 47.6532 37.4681 48.2475 37.657C49.2023 37.9454 50.097 37.2063 50.7046 35.6288C50.7414 35.5327 50.7747 35.4366 50.8081 35.3405C50.591 35.3149 50.3722 35.3072 50.1538 35.3173L50.1571 35.2908Z" fill="#8853F1"/>
<path d="M45.473 52.0768H15.4731C15.2906 52.0766 15.1149 52.0083 14.9807 51.8856C14.8465 51.7628 14.7637 51.5945 14.7487 51.414C14.4872 48.1522 15.3295 44.8971 17.1424 42.1643C18.0104 40.7989 19.8699 39.1452 21.8363 37.3953C24.4036 35.1119 27.5986 32.2717 27.7555 30.5152C27.889 28.9775 25.956 27.4364 23.7159 25.6534C21.7829 24.1124 19.5895 22.3692 17.9102 20.0592C14.0743 14.7766 14.4815 9.9214 14.5016 9.71592C14.5158 9.53569 14.598 9.3674 14.7316 9.24457C14.8653 9.12174 15.0406 9.05338 15.2227 9.0531H45.7234C45.9055 9.05338 46.0808 9.12174 46.2145 9.24457C46.3481 9.3674 46.4302 9.53569 46.4445 9.71592C46.4645 9.9214 46.8718 14.7766 43.0325 20.0592C41.3633 22.3791 39.1632 24.1124 37.2302 25.6534C34.9901 27.4364 33.0571 28.9675 33.1906 30.5152C33.3442 32.2717 36.5291 35.1119 39.1064 37.3953C41.0762 39.1452 42.9357 40.7989 43.8037 42.1643C45.6165 44.8971 46.4589 48.1522 46.1974 51.414C46.1824 51.5945 46.0995 51.7628 45.9654 51.8856C45.8312 52.0083 45.6554 52.0766 45.473 52.0768ZM16.1675 50.6352H44.7786C44.8651 47.8996 44.0966 45.2046 42.5785 42.9199C41.8173 41.7235 40.0312 40.1361 38.1416 38.4525C35.0969 35.7482 31.952 32.9478 31.7483 30.6246C31.5447 28.3014 33.7515 26.5582 36.3221 24.52C38.185 23.0353 40.295 21.3551 41.8574 19.2175C44.5783 15.4758 44.9722 11.9264 45.0089 10.5014H15.9372C15.9739 11.9231 16.3678 15.4725 19.0887 19.2175C20.6512 21.3683 22.7611 23.0486 24.624 24.52C27.1879 26.5582 29.4014 28.3213 29.1977 30.6246C28.9941 32.9279 25.8592 35.7482 22.8045 38.4525C20.9149 40.1361 19.1321 41.7235 18.3676 42.9199C16.8479 45.2038 16.0792 47.8994 16.1675 50.6352Z" fill="#68D787"/>
<path d="M26.4002 24.0029C26.5304 24.089 29.5818 26.1338 30.1394 28.0626C30.1466 28.0939 30.1636 28.1221 30.188 28.1432C30.2123 28.1643 30.2427 28.1772 30.2749 28.1801C30.3071 28.1831 30.3394 28.1759 30.3672 28.1595C30.395 28.1432 30.4169 28.1186 30.4298 28.0892C30.8605 27.2109 31.8019 25.5837 35.1037 23.2108C38.4055 20.8379 41.4068 16.8875 41.5704 16.1584C41.734 15.4293 22.3506 20.6855 22.3506 20.6855L26.3769 23.9996L26.4002 24.0029Z" fill="#68D787"/>
<path d="M18.2974 50.9963C18.5964 49.0998 19.4497 47.3321 20.7512 45.9125C22.8945 43.629 33.1872 37.6272 33.1872 37.6272C33.1872 37.6272 36.4789 40.3746 38.6189 42.5022C40.7589 44.6299 41.6503 49.7104 41.5969 50.7875L18.2974 50.9963Z" fill="#68D787"/>
<path d="M20.7515 45.9225C20.7515 45.9225 28.5369 37.0539 32.5598 37.3058C36.5827 37.5577 23.9898 46.171 20.7515 45.9225Z" fill="#DAEFDE"/>
<path d="M22.9682 19.7973C23.2686 19.6117 23.8729 19.4427 24.1934 19.2903C26.3567 18.2728 34.6797 15.025 37.7811 15.1675C41.34 15.3332 42.0077 15.7806 41.577 16.1916C41.1998 16.5561 33.7048 19.8636 22.6109 20.7816C22.5314 20.8016 22.4472 20.7917 22.3745 20.754C22.3017 20.7162 22.2456 20.6532 22.2167 20.577C22.1878 20.5008 22.1882 20.4167 22.2178 20.3407C22.2474 20.2647 22.3042 20.2022 22.3772 20.1652L22.9682 19.7973Z" fill="#DAEFDE"/>
<path d="M52.3871 10.4383H7.72447C7.53233 10.4383 7.34806 10.3626 7.2122 10.2277C7.07634 10.0928 7 9.9099 7 9.71916C7 9.52843 7.07634 9.34551 7.2122 9.21064C7.34806 9.07577 7.53233 9 7.72447 9H52.3871C52.5793 9 52.7635 9.07577 52.8994 9.21064C53.0353 9.34551 53.1116 9.52843 53.1116 9.71916C53.1116 9.9099 53.0353 10.0928 52.8994 10.2277C52.7635 10.3626 52.5793 10.4383 52.3871 10.4383Z" fill="#00202B"/>
<path d="M52.3871 52.0669H7.72447C7.53233 52.0669 7.34806 51.9911 7.2122 51.8562C7.07634 51.7214 7 51.5384 7 51.3477C7 51.157 7.07634 50.974 7.2122 50.8392C7.34806 50.7043 7.53233 50.6285 7.72447 50.6285H52.3871C52.5793 50.6285 52.7635 50.7043 52.8994 50.8392C53.0353 50.974 53.1116 51.157 53.1116 51.3477C53.1116 51.5384 53.0353 51.7214 52.8994 51.8562C52.7635 51.9911 52.5793 52.0669 52.3871 52.0669Z" fill="#00202B"/>
<path d="M13.894 39.6819L9.13661 39.778H8.46891C8.24836 39.7806 8.03757 39.8687 7.88161 40.0235C7.72565 40.1783 7.63688 40.3876 7.63428 40.6065C7.63772 40.8252 7.72676 41.034 7.88255 41.1886C8.03833 41.3432 8.24862 41.4316 8.46891 41.4351L13.2263 41.3389H13.894C14.1143 41.3355 14.3246 41.2471 14.4804 41.0925C14.6361 40.9379 14.7252 40.7291 14.7286 40.5104C14.7252 40.2917 14.6361 40.083 14.4804 39.9283C14.3246 39.7737 14.1143 39.6853 13.894 39.6819Z" fill="#FFBD00"/>
<path d="M19.0557 33.3089L17.313 28.9178L17.0626 28.2848C16.9996 28.0751 16.8574 27.8978 16.6658 27.7897C16.4742 27.6816 16.248 27.6512 16.0343 27.7048C15.8219 27.7651 15.6418 27.906 15.5331 28.097C15.4244 28.288 15.3958 28.5137 15.4534 28.7255L17.1961 33.1167L17.4465 33.7497C17.511 33.9584 17.6533 34.1347 17.8445 34.2426C18.0357 34.3504 18.2612 34.3816 18.4748 34.3297C18.6872 34.2694 18.8673 34.1285 18.976 33.9375C19.0847 33.7465 19.1133 33.5207 19.0557 33.3089Z" fill="#FFBD00"/>
<path d="M15.954 35.9801L11.861 33.5542L11.2834 33.2227C11.0918 33.1137 10.8646 33.0839 10.651 33.1397C10.4373 33.1955 10.2544 33.3325 10.1416 33.521C10.0332 33.7113 10.0036 33.9359 10.0591 34.1474C10.1145 34.359 10.2507 34.5408 10.4388 34.6544L14.5318 37.0804L15.1127 37.4118C15.3045 37.5199 15.5314 37.5493 15.7448 37.4936C15.9581 37.4378 16.1411 37.3014 16.2544 37.1135C16.3608 36.9225 16.389 36.6981 16.333 36.487C16.2771 36.2759 16.1413 36.0944 15.954 35.9801Z" fill="#FFBD00"/>
</g>
<defs>
<clipPath id="clip0_2532:4211">
<rect width="58" height="54" fill="white" transform="translate(7 9)"/>
</clipPath>
</defs>
</svg>
