<svg width="77" height="59" viewBox="0 0 77 59" fill="none" xmlns="http://www.w3.org/2000/svg">
<path d="M16.8143 36.8533C17.0848 37.1102 17.2996 37.4199 17.4458 37.7631C17.5919 38.1063 17.6662 38.4757 17.6641 38.8487C17.662 39.615 17.3566 40.349 16.815 40.8909C16.2731 41.4326 15.5391 41.7379 14.7729 41.74H5.73471V56.1508C5.73687 56.5238 5.6627 56.8934 5.51671 57.2368C5.37074 57.5801 5.15606 57.89 4.88589 58.1473C4.62162 58.4204 4.30427 58.6366 3.95339 58.7826C3.6025 58.9286 3.22546 59.0011 2.84545 58.9961C2.47232 58.9985 2.10265 58.9244 1.75927 58.7784C1.41586 58.6325 1.10603 58.4176 0.848881 58.1473C0.578497 57.89 0.363692 57.5803 0.217705 57.2369C0.0717173 56.8935 -0.00236649 56.5238 5.76235e-05 56.1508V36.0034C0.0918775 32.974 1.19337 30.3894 3.30454 28.2498C5.41572 26.1099 7.97036 24.9779 10.9684 24.8534H14.7779C15.1561 24.8474 15.5316 24.9176 15.8821 25.0595C16.2325 25.2015 16.5509 25.4123 16.8185 25.6798C17.0928 25.9386 17.3101 26.2519 17.4564 26.5996C17.6027 26.9472 17.6749 27.3216 17.6683 27.6988C17.666 28.465 17.3608 29.1992 16.819 29.7408C16.2773 30.2827 15.5431 30.5879 14.7769 30.5902H11.2847C9.84756 30.6153 8.47492 31.1911 7.44985 32.1988C6.42478 33.2065 5.82548 34.5688 5.77552 36.0053H14.7708C15.1512 35.9996 15.529 36.0718 15.8804 36.2176C16.2318 36.3634 16.5497 36.5798 16.8143 36.8533Z" fill="black"/>
<path d="M20.8995 32.333C20.6248 32.074 20.4075 31.7606 20.2614 31.4127C20.115 31.0648 20.0434 30.6902 20.0507 30.3129C20.0451 29.9328 20.1175 29.5557 20.2634 29.2047C20.4094 28.8538 20.626 28.5364 20.8995 28.2725C21.1564 28.0018 21.4663 27.7868 21.8096 27.6407C22.153 27.4943 22.5228 27.4202 22.896 27.4227C23.6619 27.4251 24.3959 27.7305 24.9374 28.2722C25.4789 28.814 25.7841 29.5479 25.7862 30.314C25.7934 30.6912 25.7214 31.0658 25.5752 31.4136C25.4291 31.7615 25.2118 32.0749 24.9374 32.334C24.6699 32.601 24.3515 32.8117 24.0009 32.9535C23.6504 33.0953 23.2751 33.1652 22.897 33.1593C22.5257 33.1626 22.1574 33.0911 21.8142 32.9491C21.4711 32.8072 21.16 32.5975 20.8995 32.333ZM24.9374 36.8077C25.2078 37.0647 25.4224 37.3743 25.5684 37.7175C25.7144 38.0607 25.7885 38.4302 25.7862 38.8031V56.1469C25.7887 56.5201 25.7146 56.8898 25.5686 57.2332C25.4226 57.5766 25.2078 57.8863 24.9374 58.1435C24.6734 58.4168 24.356 58.6332 24.0051 58.7792C23.6542 58.9252 23.277 58.9977 22.897 58.9923C22.1468 58.9785 21.431 58.6742 20.9003 58.1435C20.3698 57.613 20.0655 56.8973 20.0517 56.1469V38.8031C20.066 38.053 20.3703 37.3376 20.9009 36.8071C21.4316 36.2766 22.1469 35.9721 22.897 35.9578C23.2772 35.9526 23.6542 36.0253 24.0051 36.1716C24.3562 36.3178 24.6734 36.5342 24.9374 36.8077Z" fill="black"/>
<path d="M48.7332 39.3999C50.9667 41.6362 52.0835 44.3438 52.0835 47.5229C52.0835 50.7018 50.9667 53.4095 48.7332 55.646C46.5002 57.8802 43.7925 58.997 40.6101 58.9963H31.9822C31.2318 58.9823 30.5161 58.6782 29.9855 58.1475C29.4549 57.6168 29.1505 56.9013 29.1368 56.1508V25.1464C29.1313 24.7664 29.2039 24.3892 29.3499 24.0383C29.496 23.6874 29.7123 23.37 29.9855 23.106C30.2426 22.8355 30.5525 22.6205 30.8959 22.4743C31.2393 22.3282 31.609 22.2539 31.9822 22.2562C32.7483 22.2582 33.4824 22.5636 34.0242 23.1053C34.5659 23.6471 34.8713 24.3812 34.8734 25.1475V37.6114C36.6091 36.5813 38.5918 36.0417 40.6101 36.0506C43.7925 36.0499 46.5002 37.1664 48.7332 39.3999ZM44.6717 51.5783C45.7892 50.4566 46.3474 49.0963 46.3469 47.4975C46.3462 45.8984 45.7878 44.5381 44.6717 43.4166C43.5944 42.3393 42.1335 41.7342 40.6101 41.7342C39.0868 41.7342 37.6259 42.3393 36.5486 43.4166C35.4318 44.5381 34.8734 45.8984 34.8734 47.4975C34.8734 49.0963 35.4318 50.4566 36.5486 51.5783C37.626 52.6549 39.087 53.2597 40.6101 53.2597C42.1333 53.2597 43.5942 52.6549 44.6717 51.5783Z" fill="black"/>
<path d="M77.0001 47.9365V47.7987C76.9082 50.9192 75.7519 53.5657 73.5313 55.7381C71.3106 57.9104 68.6411 58.9966 65.5225 58.9966C62.3401 58.9966 59.6328 57.8799 57.4005 55.6462C55.1682 53.4126 54.0516 50.7051 54.0502 47.5232C54.0502 44.3408 55.167 41.6331 57.4005 39.4003C59.6342 37.1673 62.3415 36.0505 65.5225 36.0498C68.5206 36.0498 71.1215 37.0747 73.3252 39.1248C73.4773 39.2788 73.5997 39.4003 73.6925 39.492H73.6466C74.0915 40.0377 74.3189 40.7289 74.2849 41.4322C74.2507 42.1356 73.9576 42.8014 73.4619 43.3016L64.2799 52.4836C64.0991 52.6588 63.8989 52.8128 63.6831 52.9427C64.2738 53.148 64.894 53.2567 65.5195 53.264C66.2752 53.2771 67.0255 53.1351 67.7241 52.847C68.4229 52.5589 69.0551 52.1308 69.5819 51.5889C70.6981 50.4728 71.2561 49.1189 71.2561 47.5274C71.3372 46.846 71.6768 46.2218 72.205 45.7838C72.7389 45.3267 73.4222 45.0815 74.125 45.0951C74.8128 45.0872 75.4793 45.3322 75.9982 45.7838C76.5262 46.2218 76.866 46.846 76.9469 47.5274H76.9929L77.0001 47.9365ZM61.4652 43.4271C60.3476 44.552 59.7896 45.9147 59.791 47.515C59.7939 47.9498 59.8401 48.3831 59.9287 48.8087C60.0114 48.6664 60.1204 48.541 60.25 48.4395L66.7661 41.8794C66.3591 41.7895 65.9435 41.7432 65.5265 41.7405C64.7702 41.7278 64.019 41.8708 63.3202 42.161C62.6216 42.4512 61.9899 42.8821 61.4652 43.4271Z" fill="black"/>
<path d="M7.89269 19.0145C9.71207 19.0145 11.187 17.5394 11.187 15.7201C11.187 13.9007 9.71207 12.4258 7.89269 12.4258C6.0733 12.4258 4.59839 13.9007 4.59839 15.7201C4.59839 17.5394 6.0733 19.0145 7.89269 19.0145Z" fill="#F8A63F"/>
<path d="M17.286 11.7561C18.8298 11.7561 20.0814 10.5045 20.0814 8.96073C20.0814 7.41683 18.8298 6.16528 17.286 6.16528C15.7421 6.16528 14.4906 7.41683 14.4906 8.96073C14.4906 10.5045 15.7421 11.7561 17.286 11.7561Z" fill="#079F9F"/>
<path d="M8.36002 4.01763C9.46944 4.01763 10.3688 3.11827 10.3688 2.00882C10.3688 0.899381 9.46944 0 8.36002 0C7.25058 0 6.3512 0.899381 6.3512 2.00882C6.3512 3.11827 7.25058 4.01763 8.36002 4.01763Z" fill="#FF3E79"/>
</svg>
